<?xml version="1.0" encoding="UTF-8" standalone="no"?>
<svg
   viewBox="0 0 400 400"
   version="1.1"
   id="svg12"
   width="400"
   height="400"
   xmlns="http://www.w3.org/2000/svg"
   xmlns:svg="http://www.w3.org/2000/svg">
  <defs
     id="defs16" />
  <g
     id="g301">
    <path
       fill="#000099"
       d="M 0,0 H 400 V 400 H 0 Z"
       id="path2" />
    <path
       fill="#ffffff"
       d="m 60.6,319 c 0.8,1 2.4,2.2 4.4,2.2 2,0 2.9,-1.2 2.9,-2.6 0,-1.2 -0.4,-2 -2.3,-3.3 l -1.2,-0.8 c -2.7,-1.7 -3.3,-3.4 -3.3,-5.1 0,-2.7 2.1,-4.9 5.6,-4.9 1,0 1.8,0.1 2.4,0.2 0.8,0.1 1.3,0.2 1.5,0.2 -0.1,0.3 -0.2,1.8 -0.2,3.1 -0.5,-0.6 -1.6,-1.6 -3.8,-1.6 -1.7,0 -2.7,1 -2.7,2.3 0,1.1 0.3,1.9 2.2,3.1 l 1.2,0.8 c 2.9,1.9 3.7,3.3 3.7,5.3 0,1.3 -0.6,3.2 -2.3,4.3 -1.2,0.8 -2.7,1 -3.9,1 -1.6,0 -3.5,-0.4 -4.4,-1 0,-0.5 0.2,-2.2 0.2,-3.2 z m 15.8,1.6 c -2.3,-2.1 -3,-4.9 -3,-7.1 0,-1.8 0.5,-4.5 2.7,-6.6 1.8,-1.6 4.1,-2.6 7.6,-2.6 3.2,0 5.2,0.7 6.2,0.9 -0.2,0.6 -0.4,2 -0.4,3 -1.1,-1.1 -3.2,-2 -6,-2 -2.4,0 -3.8,0.8 -4.7,1.6 -1.5,1.4 -2,3.2 -2,5.3 0,3.8 2.3,7.7 7.9,7.7 2,0 3.9,-0.4 5.2,-1.3 -0.2,0.7 -0.5,2 -0.5,2.7 -0.9,0.4 -3,0.8 -5.1,0.8 -3,0.2 -5.8,-0.5 -7.9,-2.4 z m 17.3,-8.9 c 0,-3.4 -0.1,-5.9 -0.3,-6.9 h 1.5 c 0.9,0 1.7,0 2,-0.1 -0.1,0.9 -0.2,3.1 -0.2,6.6 v 0.4 c 0,0.1 0,0.1 0.1,0.1 h 9.1 c 0.1,0 0.1,0 0.1,-0.1 v -0.4 c 0,-3.4 -0.1,-5.7 -0.2,-6.6 h 1.5 c 0.8,0 1.5,0 2,-0.1 -0.1,0.9 -0.2,3.6 -0.2,7 v 4.2 c 0,2.9 0.1,5.8 0.2,6.9 h -1.5 c -0.7,0 -1.8,0.1 -2,0.1 0.1,-1 0.2,-3.9 0.2,-7 V 314 c 0,-0.1 0,-0.1 -0.1,-0.1 h -9.1 c 0,0 -0.1,0 -0.1,0.1 v 1.8 c 0,2.9 0.1,5.8 0.2,6.9 h -1.4 c -0.9,0 -1.8,0 -2.1,0.1 0.1,-1.1 0.2,-3.9 0.2,-7 v -4.1 z m 19.1,2.2 c 0,-4.8 3.2,-9.5 9.7,-9.5 5.8,0 9.3,4.1 9.3,8.9 0,5.5 -3.6,9.9 -9.7,9.9 -6.5,0 -9.3,-5 -9.3,-9.3 z m 15.6,0.2 c 0,-4.3 -2.5,-7.8 -6.5,-7.8 -3.3,0 -5.7,2.6 -5.7,7 0,4.6 2.4,8.1 6.6,8.1 2.3,-0.1 5.6,-1.7 5.6,-7.3 z m 6.3,-0.2 c 0,-4.8 3.2,-9.5 9.7,-9.5 5.8,0 9.3,4.1 9.3,8.9 0,5.5 -3.6,9.9 -9.7,9.9 -6.5,0 -9.3,-5 -9.3,-9.3 z m 15.6,0.2 c 0,-4.3 -2.5,-7.8 -6.5,-7.8 -3.3,0 -5.7,2.6 -5.7,7 0,4.6 2.4,8.1 6.6,8.1 2.3,-0.1 5.6,-1.7 5.6,-7.3 z m 7.8,-2.4 c 0,-3.4 -0.1,-6.2 -0.3,-6.9 h 1.5 c 0.9,0 1.7,0 2,-0.1 -0.1,0.9 -0.2,3.5 -0.2,6.9 v 4.1 c 0,4.3 0,4.9 0.2,5 0.1,0.1 0.3,0.2 0.6,0.2 0.5,0 1.3,0.1 2.3,0.1 2.3,0 3.6,-0.2 4.3,-0.6 -0.3,0.6 -0.6,2 -0.7,2.5 -0.1,0.1 -0.5,0.1 -1.6,0.1 -3.5,0 -4.9,-0.1 -6.6,-0.1 h -1.7 c 0.1,-0.9 0.2,-3.4 0.2,-6.9 z m 20.3,2.2 c 0,-4.8 3.2,-9.5 9.7,-9.5 5.8,0 9.3,4.1 9.3,8.9 0,5.5 -3.6,9.9 -9.7,9.9 -6.5,0 -9.3,-5 -9.3,-9.3 z m 15.6,0.2 c 0,-4.3 -2.5,-7.8 -6.5,-7.8 -3.3,0 -5.7,2.6 -5.7,7 0,4.6 2.4,8.1 6.6,8.1 2.3,-0.1 5.6,-1.7 5.6,-7.3 z m 7.7,-2.4 c 0,-3.9 -0.1,-6.2 -0.3,-7 0.5,0 1.3,0.1 2,0.1 h 5.8 c 0.8,0 1.8,0 2.2,-0.1 -0.1,0.9 -0.2,2.1 -0.2,2.6 -0.4,-0.2 -0.8,-0.3 -2.1,-0.4 -0.8,0 -2.6,-0.1 -4.2,-0.1 0,0 -0.1,0 -0.1,0.1 v 5.6 c 0,0.1 0,0.1 0.1,0.1 h 3.8 c 1.5,0 1.9,-0.1 2.2,-0.2 -0.1,0.3 -0.2,1.9 -0.2,2.7 -0.4,-0.2 -0.9,-0.3 -1.9,-0.4 -0.8,0 -2.5,-0.1 -3.8,-0.1 0,0 -0.1,0 -0.1,0.1 v 1.2 c 0,2.3 0.1,6.1 0.2,6.9 h -1.6 c -0.6,0 -1.6,0 -1.9,0.1 0.1,-0.8 0.2,-3.5 0.2,-7 v -4.2 z m 21.6,0 c 0,-3.4 -0.1,-6 -0.3,-6.9 h 1.4 c 1.2,0 2.4,-0.1 3.9,-0.1 4.4,0 5.5,2.4 5.5,4.2 0,1.9 -1.2,3.2 -2.3,3.8 2.3,0.7 4,2.3 4,4.8 0,2.9 -2.3,5.5 -6.7,5.5 -1.7,0 -3.2,-0.1 -3.7,-0.2 -0.6,0 -1.5,0 -1.9,0.1 0.1,-1 0.2,-3.9 0.2,-7 v -4.2 z m 2.9,0.3 c 0,0.1 0,0.1 0.1,0.1 0.5,0 2.1,0.1 2.4,0.1 0.5,0 0.8,0 1.1,-0.2 0.8,-0.6 1.2,-1.6 1.2,-2.5 0,-1.8 -1.1,-3 -3.4,-3 -0.7,0 -1.2,0 -1.3,0.1 l -0.1,0.1 z m 4.7,3.1 c -0.8,-0.7 -1.8,-0.9 -2.9,-1 h -1.8 c 0,0 -0.1,0 -0.1,0.1 v 1.7 c 0,3 0,4.6 0.1,4.7 0.2,0.2 1,0.5 2.4,0.5 1.8,0 3.5,-1.1 3.5,-3.3 0.1,-0.9 0,-1.8 -1.2,-2.7 z m 9,-10.3 c 1,0 1.8,0 2.2,-0.1 -0.1,0.8 -0.2,3.6 -0.2,7 v 3.2 c 0,3 0.6,4.2 1.7,5.1 1,0.9 2.3,1 3.2,1 0.9,0 2.2,-0.2 3,-1.1 1.2,-1.2 1.4,-2.7 1.4,-5.6 v -2.6 c 0,-3.4 -0.2,-6 -0.3,-6.9 h 1.3 c 0.8,0 1.5,0 1.7,-0.1 -0.1,0.8 -0.3,3.6 -0.3,7 v 2.6 c 0,2.8 -0.2,5.6 -2.4,7.4 -1.4,1.2 -3.3,1.5 -4.9,1.5 -1.9,0 -4,-0.4 -5.3,-1.6 -1.2,-1.1 -2.1,-2.6 -2.1,-6.1 v -3.8 c 0,-3.4 -0.1,-6.2 -0.3,-6.9 z m 17.3,14.2 c 0.8,1 2.4,2.2 4.4,2.2 2,0 2.9,-1.2 2.9,-2.6 0,-1.2 -0.4,-2 -2.3,-3.3 l -1.2,-0.8 c -2.7,-1.7 -3.3,-3.4 -3.3,-5.1 0,-2.7 2.1,-4.9 5.6,-4.9 1,0 1.8,0.1 2.4,0.2 0.8,0.1 1.3,0.2 1.5,0.2 -0.1,0.3 -0.2,1.8 -0.2,3.1 -0.5,-0.6 -1.6,-1.6 -3.8,-1.6 -1.7,0 -2.7,1 -2.7,2.3 0,1.1 0.3,1.9 2.2,3.1 l 1.2,0.8 c 2.9,1.9 3.7,3.3 3.7,5.3 0,1.3 -0.6,3.2 -2.3,4.3 -1.2,0.8 -2.7,1 -3.9,1 -1.6,0 -3.5,-0.4 -4.4,-1 0,-0.5 0.2,-2.2 0.2,-3.2 z m 14.6,-7.3 c 0,-3.4 -0.1,-6.2 -0.3,-6.9 h 1.4 c 1.1,0 1.8,0 2.1,-0.1 -0.1,0.9 -0.2,3.6 -0.2,7 v 4.2 c 0,2.9 0.1,6.2 0.3,6.9 h -1.5 c -0.7,0 -1.7,0 -2,0.1 0.1,-1 0.2,-3.9 0.2,-7 z m 10,11.1 c -0.3,0 -1.5,0 -1.7,0.1 0.2,-2.2 0.4,-12.9 0.4,-17.1 0,-1.2 0.1,-1.3 0.2,-1.3 0.1,0 0.3,0.1 0.8,0.6 2.6,2.5 9.7,10 12.2,12.2 0,-2.7 -0.1,-9.4 -0.3,-12.4 h 1.3 c 0.6,0 1.5,0 1.7,-0.1 -0.2,1.5 -0.4,7.3 -0.4,13.1 v 3.5 c 0,1.7 -0.1,1.9 -0.2,1.9 -0.2,0 -0.8,-0.5 -2.4,-2.1 -2.4,-2.3 -7.5,-7.9 -10.6,-10.9 0,4.8 0.1,10.7 0.4,12.5 z M 301,311.7 c 0,-3.9 -0.1,-6.2 -0.3,-6.9 h 7.5 c 0.7,0 1.7,0 2.2,-0.1 -0.1,0.5 -0.2,1.5 -0.2,2.7 -0.4,-0.2 -0.9,-0.4 -2.2,-0.5 -0.8,0 -2.3,-0.1 -3.8,-0.1 0,0 -0.1,0 -0.1,0.1 v 5.3 c 0,0.1 0,0.1 0.1,0.1 h 3.7 c 1.4,0 1.9,-0.1 2.2,-0.2 -0.1,0.8 -0.2,2.1 -0.2,2.7 -0.4,-0.2 -0.8,-0.4 -1.8,-0.4 -0.8,0 -3.3,-0.1 -3.8,-0.1 0,0 -0.1,0 -0.1,0.1 v 1.3 c 0,4.2 0,4.9 0.2,5 0.1,0.1 0.3,0.1 0.6,0.2 0.6,0.1 1.3,0.1 2.3,0.1 2.1,0 3.3,-0.2 4.1,-0.6 -0.2,0.8 -0.5,1.9 -0.6,2.5 -0.1,0.1 -0.4,0.1 -1.3,0.1 -3.2,0 -5.1,-0.2 -6.4,-0.2 -1,0 -1.7,0 -2,0.1 0.1,-0.9 0.2,-3.5 0.2,-7 v -4.2 z m 13.6,7.3 c 0.8,1 2.4,2.2 4.4,2.2 2,0 2.9,-1.2 2.9,-2.6 0,-1.2 -0.4,-2 -2.3,-3.3 l -1.2,-0.8 c -2.7,-1.7 -3.3,-3.4 -3.3,-5.1 0,-2.7 2.1,-4.9 5.6,-4.9 1,0 1.8,0.1 2.4,0.2 0.8,0.1 1.3,0.2 1.5,0.2 -0.1,0.3 -0.2,1.8 -0.2,3.1 -0.5,-0.6 -1.6,-1.6 -3.8,-1.6 -1.7,0 -2.7,1 -2.7,2.3 0,1.1 0.3,1.9 2.2,3.1 l 1.2,0.8 c 3,1.9 3.7,3.3 3.7,5.3 0,1.3 -0.6,3.2 -2.3,4.3 -1.2,0.8 -2.7,1 -3.9,1 -1.6,0 -3.5,-0.4 -4.4,-1 0,-0.5 0.2,-2.2 0.2,-3.2 z m 13.6,0 c 0.8,1 2.4,2.2 4.4,2.2 2,0 2.9,-1.2 2.9,-2.6 0,-1.2 -0.4,-2 -2.3,-3.3 l -1.2,-0.8 c -2.7,-1.7 -3.3,-3.4 -3.3,-5.1 0,-2.7 2.1,-4.9 5.6,-4.9 1,0 1.8,0.1 2.4,0.2 0.8,0.1 1.3,0.2 1.5,0.2 -0.1,0.3 -0.2,1.8 -0.2,3.1 -0.5,-0.6 -1.6,-1.6 -3.8,-1.6 -1.7,0 -2.7,1 -2.7,2.3 0,1.1 0.3,1.9 2.2,3.1 l 1.2,0.8 c 3,1.9 3.7,3.3 3.7,5.3 0,1.3 -0.6,3.2 -2.3,4.3 -1.2,0.8 -2.7,1 -3.9,1 -1.6,0 -3.5,-0.4 -4.4,-1 0,-0.5 0.2,-2.2 0.2,-3.2 z m -25.1,-72.2 c -0.2,0 -0.3,0.1 -0.4,0.2 -2.5,7.1 -6.2,17.4 -7.2,21.3 -0.8,-0.2 -1.5,-0.2 -3.2,-0.2 -1.6,0 -3.7,0.2 -4.3,0.2 2,-4.3 5.1,-11.4 8.4,-19.3 l 16.1,-39.8 c 1,-2.4 1.4,-3.3 1.9,-3.3 0.4,0 0.8,0.6 1.9,3.3 0.9,2 8.8,20.2 15.8,36.7 3.7,8.7 8.2,19.2 10.3,22.4 -1.5,-0.1 -2.8,-0.2 -3.7,-0.2 -2,0 -4.3,0.1 -5.3,0.2 -1.3,-3.7 -5.8,-14.8 -8.5,-21.3 -0.1,-0.2 -0.1,-0.2 -0.3,-0.2 z m 19.7,-4.7 c 0.2,0 0.2,-0.1 0.2,-0.3 l -9.6,-23.6 -8.8,23.6 c -0.1,0.2 0,0.3 0.2,0.3 z m -84.5,-34.8 c 2.3,0 4.1,-0.1 5.1,-0.2 -0.3,2.5 -0.6,12 -0.6,23.5 v 11.3 c 0,10.7 2.4,14.9 5.8,18.1 3.8,3.7 8.8,4.2 12.7,4.2 3.7,0 8.7,-1 11.8,-4.4 4.1,-4.4 5.1,-10.3 5.1,-19.6 v -9.6 c 0,-11.6 -0.5,-20.5 -0.9,-23.4 0.9,0.2 2.4,0.2 3.2,0.2 1.7,0 3.5,-0.2 3.9,-0.2 -0.3,2.5 -0.7,12 -0.7,23.5 v 9.4 c 0,9.5 -0.9,18.4 -7.7,24.4 -4.9,4.3 -11.1,5.1 -16.5,5.1 -5.6,0 -12.3,-1.4 -16.7,-5.4 -4.1,-3.8 -6.9,-9.1 -6.9,-20.8 v -12.7 c 0,-11.6 -0.3,-21.4 -0.8,-23.4 z M 226.5,269 c -5,0 -9.8,-1.1 -16,-5 8.6,-6.3 13.6,-15.4 13.6,-27.6 0,-17.4 -12.2,-30.5 -30.8,-30.5 -20.9,0 -31.7,16.3 -31.7,32.4 0,14 9,31.2 30.8,31.2 3.1,0 7.8,-0.4 11.9,-2.4 6.3,4.4 13.3,8.8 19.5,8.8 0.1,-0.4 0.8,-2.4 1.2,-3.6 0.5,-1.1 1.3,-2.8 1.5,-3.3 z M 194,264.9 c -14.4,0 -24.6,-11.4 -24.7,-28.4 0,-15 8.7,-26 22.6,-26 13.6,0 24.5,10.8 24.5,27.7 0.1,19.8 -12.7,26.7 -22.4,26.7 z m -87.8,-57.6 c 2.3,0 4.1,-0.1 5.1,-0.2 -0.3,2.5 -0.6,12 -0.6,23.5 v 11.3 c 0,10.7 2.4,14.9 5.8,18.1 3.8,3.7 8.8,4.2 12.7,4.2 3.7,0 8.7,-1 11.8,-4.4 4.1,-4.4 5.1,-10.3 5.1,-19.6 v -9.6 c 0,-11.6 -0.5,-20.5 -0.9,-23.4 0.9,0.2 2.4,0.2 3.2,0.2 1.7,0 3.5,-0.2 3.9,-0.2 -0.3,2.5 -0.7,12 -0.7,23.5 v 9.4 c 0,9.5 -0.9,18.4 -7.7,24.4 -4.9,4.3 -11.1,5.1 -16.5,5.1 -5.6,0 -12.3,-1.4 -16.7,-5.4 -4.1,-3.8 -6.9,-9.1 -6.9,-20.8 v -12.7 c 0,-11.6 -0.3,-21.4 -0.8,-23.4 z M 62,230.6 c 0,-13.1 -0.3,-21.1 -0.8,-23.4 1.4,0.1 3.3,0.2 4.9,0.2 h 19 c 2,0 5,-0.2 6.3,-0.4 -0.3,2 -0.5,4.9 -0.6,6.4 -1.1,-0.5 -2.2,-0.7 -6.2,-1.1 -2.5,-0.2 -8.4,-0.4 -15.3,-0.4 -0.1,0 -0.2,0.1 -0.2,0.3 -0.1,7.1 -0.2,14.8 -0.2,21.9 0,0.3 0.1,0.4 0.3,0.4 1.1,0 11.1,-0.1 13.4,-0.2 4.5,-0.1 6.1,-0.3 6.9,-0.6 -0.2,1.1 -0.6,4.5 -0.6,6.7 -1.1,-0.6 -2.5,-0.9 -5.4,-1.1 -2.8,-0.2 -8.7,-0.3 -14.4,-0.3 -0.2,0 -0.2,0.1 -0.2,0.4 v 5.3 c 0,5.6 0.3,20.9 0.7,23.5 -0.7,-0.1 -1.7,-0.2 -3.7,-0.2 -1.4,0 -3.8,0.2 -4.6,0.2 0.3,-2.4 0.7,-12.1 0.7,-23.5 z M 341.4,178.9 H 60.3 v 4 h 281.1 z m -40.7,-73.1 c 0,-17 -0.4,-27.4 -1,-30.3 1.3,0.2 4.1,0.2 6.2,0.2 h 23.3 c 2.2,0 6.5,-0.1 8.4,-0.5 -0.3,1.6 -0.8,5.1 -0.8,8.6 -1.3,-0.7 -3.4,-1.3 -8.4,-1.7 -3.1,-0.3 -9.2,-0.5 -18.2,-0.5 -0.1,0 -0.4,0.1 -0.4,0.4 v 27.1 c 0,0.3 0.2,0.5 0.4,0.5 1.4,0 13.7,0 16.7,-0.1 5.5,-0.2 8,-0.5 9,-0.8 -0.5,2.4 -0.9,6.6 -0.8,8.7 -1.5,-0.7 -3.1,-1.2 -7.1,-1.5 -3.6,-0.2 -15.8,-0.4 -17.7,-0.4 -0.2,0 -0.4,0.2 -0.4,0.4 v 7.5 c 0,20.6 0.2,23.6 0.7,24.1 0.3,0.3 1.5,0.5 2.4,0.6 2.4,0.2 5.6,0.5 10.1,0.5 10,0 14.5,-0.7 17.4,-2.2 -0.7,2.3 -1.6,6.1 -2,8.2 -0.4,0.1 -1.4,0.2 -5.3,0.2 -14.6,0 -22.4,-0.6 -26.4,-0.6 -3,0 -5.5,0.1 -6.6,0.2 0.3,-3.7 0.8,-15.5 0.8,-30.3 v -18.3 z m -74.2,-0.2 c 0,-14.9 -0.2,-27.5 -0.9,-30.2 0.9,0.2 3.1,0.2 4.4,0.2 2.7,0 5.1,-0.1 6.3,-0.3 -0.3,3.9 -0.7,15.5 -0.7,30.4 v 18.4 c 0,13.3 0.3,27.3 0.9,30.3 -0.9,-0.1 -2.6,-0.2 -4.1,-0.2 -2.1,0 -5.6,0.1 -6.6,0.3 0.4,-3.6 0.7,-16.8 0.7,-30.4 z m 10.4,8 c -0.1,-0.2 -0.1,-0.6 0.1,-0.8 4.4,-3.9 15.3,-14.9 23.5,-24.2 6.5,-7 10.4,-11.9 10.9,-13.1 1,0.1 2.1,0.2 3.7,0.2 3.8,0 7,-0.2 8.7,-0.3 -1.6,1.3 -5.3,3.9 -13.7,12.1 -3.1,3.4 -21.8,22 -24,24.5 6.5,7.7 21.8,23.5 28,29.7 10.1,9.9 13.6,11.7 15.5,12.4 -0.7,0.5 -4.2,0.8 -6.1,0.8 -6.4,0 -10.3,-1.5 -16.9,-8.6 -10.3,-10.4 -20.5,-22.4 -29.7,-32.7 z M 149.4,75.7 c 2.9,0 5.3,-0.1 6.6,-0.3 -0.4,3.2 -0.8,15.5 -0.8,30.4 v 14.6 c 0,13.8 3,19.3 7.4,23.4 4.9,4.7 11.4,5.4 16.4,5.4 4.7,0 11.2,-1.3 15.2,-5.7 5.3,-5.7 6.6,-13.3 6.6,-25.4 v -12.4 c 0,-15 -0.6,-26.5 -1.2,-30.3 1.2,0.2 3.1,0.2 4.2,0.2 2.2,0 4.5,-0.2 5,-0.3 -0.4,3.2 -0.9,15.5 -0.9,30.4 v 12.2 c 0,12.3 -1.2,23.8 -10,31.5 -6.3,5.6 -14.4,6.6 -21.3,6.6 -7.2,0 -15.9,-1.8 -21.6,-7 -5.2,-4.9 -8.9,-11.7 -8.9,-26.8 v -16.5 c 0,-15 -0.4,-27.7 -1,-30.3 1,0.3 2.7,0.3 4.3,0.3 z m -87.5,29.8 c 0,-19.6 -0.5,-27.7 -0.9,-30.1 1,0.1 3.4,0.2 5,0.2 2.5,0 8.5,-0.4 15.4,-0.4 13.6,0 29.6,1.7 39.9,12.3 5.2,5.5 10,14 10,26.5 0,13.4 -5.1,23.3 -11,29.5 -5,5.1 -14.9,12.2 -33.1,12.2 -4.4,0 -8.4,-0.2 -12.2,-0.5 -5,-0.5 -9.2,-1 -13.7,-0.7 0.2,-4.4 0.6,-13.9 0.6,-29.6 z m 9,15.7 c 0,11.1 0.1,19.7 0.2,22.5 0.1,2.1 0.2,3.2 0.6,3.6 1.5,1.2 7.8,2.4 16.3,2.4 8.6,0 16.9,-2.1 22.7,-7.1 6,-5 10.7,-14.1 10.7,-25.9 0,-9 -2,-17.1 -7.4,-23.8 -7.2,-8.8 -19.5,-12.2 -32.9,-12.2 -3.9,0 -8.1,0.4 -9.6,0.8 -0.3,0.2 -0.4,0.4 -0.4,0.7 -0.2,2 -0.2,12.2 -0.2,23 z"
       id="path4" />
  </g>
</svg>
